<svg xmlns="http://www.w3.org/2000/svg" version="1.1" xmlns:xlink="http://www.w3.org/1999/xlink" xmlns:svgjs="http://svgjs.com/svgjs" width="1000" height="1000"><rect width="1000" height="1000" rx="100" ry="100" fill="#ffffff"></rect><g transform="matrix(1,0,0,1,0,0)"><svg xmlns="http://www.w3.org/2000/svg" version="1.1" xmlns:xlink="http://www.w3.org/1999/xlink" xmlns:svgjs="http://svgjs.com/svgjs" width="262px" height="100px"><svg xmlns="http://www.w3.org/2000/svg" version="1.1" width="262px" height="100px" style="shape-rendering:geometricPrecision; text-rendering:geometricPrecision; image-rendering:optimizeQuality; fill-rule:evenodd; clip-rule:evenodd" xmlns:xlink="http://www.w3.org/1999/xlink">
<g><path style="opacity:0.925" fill="#212221" d="M 15.5,-0.5 C 20.5,-0.5 25.5,-0.5 30.5,-0.5C 41.9215,4.65635 46.9215,13.6564 45.5,26.5C 40.5965,26.9389 35.7632,27.6056 31,28.5C 32.223,21.2725 29.5564,16.2725 23,13.5C 15.1024,17.1225 13.4357,22.7892 18,30.5C 25.6287,39.7974 33.6287,48.7974 42,57.5C 48.0579,67.2953 49.0579,77.6287 45,88.5C 41.6642,93.7315 37.1642,97.3982 31.5,99.5C 26.1667,99.5 20.8333,99.5 15.5,99.5C 7.43368,96.4329 2.10035,90.7663 -0.5,82.5C -0.5,78.8333 -0.5,75.1667 -0.5,71.5C 4.482,70.9466 9.482,70.6133 14.5,70.5C 13.0306,81.8591 17.6973,86.3591 28.5,84C 33.4668,78.4783 33.6335,72.6449 29,66.5C 22.3648,58.8637 15.3648,51.5304 8,44.5C 0.0818177,33.802 -1.58485,22.1353 3,9.5C 5.88707,4.4341 10.0537,1.10076 15.5,-0.5 Z"></path></g>
<g><path style="opacity:0.94" fill="#212221" d="M 88.5,-0.5 C 93.8333,-0.5 99.1667,-0.5 104.5,-0.5C 111.816,1.98409 116.649,6.98409 119,14.5C 120.124,26.1124 120.624,37.7791 120.5,49.5C 120.624,61.2209 120.124,72.8876 119,84.5C 116.649,92.0159 111.816,97.0159 104.5,99.5C 98.8333,99.5 93.1667,99.5 87.5,99.5C 80.8548,96.3532 76.0214,91.3532 73,84.5C 72.3333,61.1667 72.3333,37.8333 73,14.5C 76.1058,7.22525 81.2724,2.22525 88.5,-0.5 Z M 94.5,13.5 C 99.0213,13.3919 102.188,15.3919 104,19.5C 104.667,39.5 104.667,59.5 104,79.5C 101.167,84.7773 97.0002,86.2773 91.5,84C 89.5125,82.6811 88.3459,80.8477 88,78.5C 87.3333,59.1667 87.3333,39.8333 88,20.5C 89.0183,16.9853 91.1849,14.652 94.5,13.5 Z"></path></g>
<g><path style="opacity:0.928" fill="#212221" d="M 159.5,0.5 C 166.5,0.5 173.5,0.5 180.5,0.5C 185.293,32.9258 190.627,65.2591 196.5,97.5C 190.946,98.8059 185.446,98.8059 180,97.5C 178.838,90.8655 178.005,84.1988 177.5,77.5C 172.167,77.5 166.833,77.5 161.5,77.5C 161.089,84.2119 160.256,90.8786 159,97.5C 153.928,98.4714 148.762,98.8047 143.5,98.5C 148.402,65.7547 153.735,33.088 159.5,0.5 Z M 168.5,28.5 C 169.725,29.1522 170.392,30.3189 170.5,32C 171.975,41.8246 173.308,51.6579 174.5,61.5C 171.167,61.5 167.833,61.5 164.5,61.5C 166.021,50.5227 167.354,39.5227 168.5,28.5 Z"></path></g>
<g><path style="opacity:0.925" fill="#212221" d="M 261.5,0.5 C 261.5,5.83333 261.5,11.1667 261.5,16.5C 252.424,38.5436 243.424,60.7102 234.5,83C 243.494,83.4998 252.494,83.6664 261.5,83.5C 261.5,88.5 261.5,93.5 261.5,98.5C 246.5,98.5 231.5,98.5 216.5,98.5C 216.334,93.8215 216.501,89.1548 217,84.5C 226.408,61.6898 235.242,38.6898 243.5,15.5C 234.5,15.5 225.5,15.5 216.5,15.5C 216.5,10.5 216.5,5.5 216.5,0.5C 231.5,0.5 246.5,0.5 261.5,0.5 Z"></path></g>
<g><path style="opacity:0.979" fill="#b87c3a" d="M 92.5,17.5 C 95.6852,17.0196 98.5185,17.6863 101,19.5C 101.667,39.5 101.667,59.5 101,79.5C 97.6667,82.1667 94.3333,82.1667 91,79.5C 90.3333,59.5 90.3333,39.5 91,19.5C 91.7172,18.9558 92.2172,18.2891 92.5,17.5 Z"></path></g>
</svg></svg></g></svg>